<?xml version="1.0" encoding="UTF-8"?>
<svg width="46px" height="42px" viewBox="0 0 46 42" version="1.1" xmlns="http://www.w3.org/2000/svg" xmlns:xlink="http://www.w3.org/1999/xlink">
    <!-- Generator: Sketch 51.3 (57544) - http://www.bohemiancoding.com/sketch -->
    <title>Favicon-active</title>
    <desc>Created with Sketch.</desc>
    <defs></defs>
    <g id="Page-1" stroke="none" stroke-width="1" fill="none" fill-rule="evenodd">
        <g id="Favicon-active" fill="#CC0033" fill-rule="nonzero">
            <path d="M45,8.5 C43.7,5.4 41.2,2.8 37.9,1.3 C36.1,0.5 34.2,0 32.3,0 C31,0 29.8,0.2 28.6,0.5 C26.4,1.1 24.4,2.5 23,3.6 C21.6,2.5 19.6,1.2 17.4,0.5 C16.2,0.1 14.9,1.77635684e-15 13.7,1.77635684e-15 C11.8,1.77635684e-15 9.9,0.4 8.1,1.3 C4.8,2.8 2.2,5.4 1,8.5 C-0.3,11.7 -0.2,15.3 1.3,18.7 C4.2,25.3 19.8,39.2 21.5,40.8 C21.9,41.2 22.5,41.4 23,41.4 C23.6,41.4 24.1,41.2 24.5,40.8 C26.3,39.2 41.8,25.3 44.7,18.7 C46.2,15.4 46.3,11.7 45,8.5 Z" id="Shape"></path>
        </g>
    </g>
</svg>