<?xml version="1.0" encoding="UTF-8"?>
<svg width="48px" height="43px" viewBox="0 0 48 43" version="1.1" xmlns="http://www.w3.org/2000/svg" xmlns:xlink="http://www.w3.org/1999/xlink">
    <!-- Generator: Sketch 51.3 (57544) - http://www.bohemiancoding.com/sketch -->
    <title>Favicon</title>
    <desc>Created with Sketch.</desc>
    <defs></defs>
    <g id="Page-1" stroke="none" stroke-width="1" fill="none" fill-rule="evenodd">
        <g id="Favicon" transform="translate(1.000000, 1.000000)" stroke="#FFFFFF" stroke-width="2">
            <path d="M44.9,8.8 C43.7,5.7 41.2,3.2 37.9,1.7 C36.1,0.9 34.3,0.5 32.4,0.5 C31.2,0.5 29.9,0.7 28.7,1 C26.5,1.6 24.6,2.9 23.2,4 C21.9,2.9 19.9,1.6 17.7,1 C16.5,0.7 15.3,0.5 14.1,0.5 C12.2,0.5 10.3,0.9 8.6,1.7 C5.3,3.2 2.9,5.7 1.6,8.8 C0.3,11.9 0.4,15.5 1.9,18.8 C4.7,25.2 20,38.9 21.7,40.4 C22.1,40.8 22.7,41 23.2,41 C23.7,41 24.3,40.8 24.7,40.4 C26.4,38.9 41.7,25.2 44.5,18.8 C46,15.5 46.1,11.9 44.9,8.8 Z" id="Shape"></path>
        </g>
    </g>
</svg>